<?xml version="1.0" encoding="UTF-8" standalone="no"?>
<!DOCTYPE svg PUBLIC "-//W3C//DTD SVG 1.1//EN"
 "http://www.w3.org/Graphics/SVG/1.1/DTD/svg11.dtd">
<!-- Generated by graphviz version 2.42.3 (20191010.1750)
 -->
<!-- Title: snakemake_dag Pages: 1 -->
<svg width="313pt" height="476pt"
 viewBox="0.00 0.00 312.50 476.00" xmlns="http://www.w3.org/2000/svg" xmlns:xlink="http://www.w3.org/1999/xlink">
<g id="graph0" class="graph" transform="scale(1 1) rotate(0) translate(4 472)">
<title>snakemake_dag</title>
<polygon fill="white" stroke="transparent" points="-4,4 -4,-472 308.5,-472 308.5,4 -4,4"/>
<!-- 0 -->
<g id="node1" class="node">
<title>0</title>
<path fill="none" stroke="#88d856" stroke-width="2" d="M149,-36C149,-36 119,-36 119,-36 113,-36 107,-30 107,-24 107,-24 107,-12 107,-12 107,-6 113,0 119,0 119,0 149,0 149,0 155,0 161,-6 161,-12 161,-12 161,-24 161,-24 161,-30 155,-36 149,-36"/>
<text text-anchor="middle" x="134" y="-15.5" font-family="sans" font-size="10.00">all</text>
</g>
<!-- 1 -->
<g id="node2" class="node">
<title>1</title>
<path fill="none" stroke="#59d856" stroke-width="2" d="M113.5,-108C113.5,-108 34.5,-108 34.5,-108 28.5,-108 22.5,-102 22.5,-96 22.5,-96 22.5,-84 22.5,-84 22.5,-78 28.5,-72 34.5,-72 34.5,-72 113.5,-72 113.5,-72 119.5,-72 125.5,-78 125.5,-84 125.5,-84 125.5,-96 125.5,-96 125.5,-102 119.5,-108 113.5,-108"/>
<text text-anchor="middle" x="74" y="-87.5" font-family="sans" font-size="10.00">Rsem_expression</text>
</g>
<!-- 1&#45;&gt;0 -->
<g id="edge1" class="edge">
<title>1&#45;&gt;0</title>
<path fill="none" stroke="grey" stroke-width="2" d="M88.83,-71.7C96.02,-63.3 104.8,-53.07 112.69,-43.86"/>
<polygon fill="grey" stroke="grey" stroke-width="2" points="115.49,-45.97 119.34,-36.1 110.17,-41.42 115.49,-45.97"/>
</g>
<!-- 2 -->
<g id="node3" class="node">
<title>2</title>
<path fill="none" stroke="#d8bc56" stroke-width="2" d="M83.5,-180C83.5,-180 42.5,-180 42.5,-180 36.5,-180 30.5,-174 30.5,-168 30.5,-168 30.5,-156 30.5,-156 30.5,-150 36.5,-144 42.5,-144 42.5,-144 83.5,-144 83.5,-144 89.5,-144 95.5,-150 95.5,-156 95.5,-156 95.5,-168 95.5,-168 95.5,-174 89.5,-180 83.5,-180"/>
<text text-anchor="middle" x="63" y="-159.5" font-family="sans" font-size="10.00">Compress</text>
</g>
<!-- 2&#45;&gt;1 -->
<g id="edge3" class="edge">
<title>2&#45;&gt;1</title>
<path fill="none" stroke="grey" stroke-width="2" d="M65.72,-143.7C66.93,-135.98 68.39,-126.71 69.74,-118.11"/>
<polygon fill="grey" stroke="grey" stroke-width="2" points="73.22,-118.53 71.31,-108.1 66.3,-117.44 73.22,-118.53"/>
</g>
<!-- 3 -->
<g id="node4" class="node">
<title>3</title>
<path fill="none" stroke="#56d8c1" stroke-width="2" d="M83,-324C83,-324 27,-324 27,-324 21,-324 15,-318 15,-312 15,-312 15,-300 15,-300 15,-294 21,-288 27,-288 27,-288 83,-288 83,-288 89,-288 95,-294 95,-300 95,-300 95,-312 95,-312 95,-318 89,-324 83,-324"/>
<text text-anchor="middle" x="55" y="-303.5" font-family="sans" font-size="10.00">Fasterqdump</text>
</g>
<!-- 3&#45;&gt;2 -->
<g id="edge5" class="edge">
<title>3&#45;&gt;2</title>
<path fill="none" stroke="grey" stroke-width="2" d="M55.96,-287.87C57.33,-263.67 59.83,-219.21 61.46,-190.39"/>
<polygon fill="grey" stroke="grey" stroke-width="2" points="64.96,-190.37 62.03,-180.19 57.97,-189.98 64.96,-190.37"/>
</g>
<!-- 4 -->
<g id="node5" class="node">
<title>4</title>
<path fill="none" stroke="#d85656" stroke-width="2" stroke-dasharray="5,2" d="M110,-468C110,-468 12,-468 12,-468 6,-468 0,-462 0,-456 0,-456 0,-444 0,-444 0,-438 6,-432 12,-432 12,-432 110,-432 110,-432 116,-432 122,-438 122,-444 122,-444 122,-456 122,-456 122,-462 116,-468 110,-468"/>
<text text-anchor="middle" x="61" y="-453" font-family="sans" font-size="10.00">Metadata</text>
<text text-anchor="middle" x="61" y="-442" font-family="sans" font-size="10.00">sample: GSM3960735</text>
</g>
<!-- 4&#45;&gt;3 -->
<g id="edge6" class="edge">
<title>4&#45;&gt;3</title>
<path fill="none" stroke="grey" stroke-width="2" d="M44.54,-431.92C36.35,-422.22 27.3,-409.37 23,-396 18.1,-380.77 18.71,-375.41 23,-360 25.67,-350.42 30.59,-340.84 35.78,-332.51"/>
<polygon fill="grey" stroke="grey" stroke-width="2" points="38.8,-334.29 41.44,-324.03 32.98,-330.41 38.8,-334.29"/>
</g>
<!-- 5 -->
<g id="node6" class="node">
<title>5</title>
<path fill="none" stroke="#d88d56" stroke-width="2" d="M77.5,-396C77.5,-396 44.5,-396 44.5,-396 38.5,-396 32.5,-390 32.5,-384 32.5,-384 32.5,-372 32.5,-372 32.5,-366 38.5,-360 44.5,-360 44.5,-360 77.5,-360 77.5,-360 83.5,-360 89.5,-366 89.5,-372 89.5,-372 89.5,-384 89.5,-384 89.5,-390 83.5,-396 77.5,-396"/>
<text text-anchor="middle" x="61" y="-375.5" font-family="sans" font-size="10.00">Srafetch</text>
</g>
<!-- 4&#45;&gt;5 -->
<g id="edge8" class="edge">
<title>4&#45;&gt;5</title>
<path fill="none" stroke="grey" stroke-width="2" d="M61,-431.7C61,-423.98 61,-414.71 61,-406.11"/>
<polygon fill="grey" stroke="grey" stroke-width="2" points="64.5,-406.1 61,-396.1 57.5,-406.1 64.5,-406.1"/>
</g>
<!-- 9 -->
<g id="node10" class="node">
<title>9</title>
<path fill="none" stroke="#56c1d8" stroke-width="2" stroke-dasharray="5,2" d="M178.5,-396C178.5,-396 119.5,-396 119.5,-396 113.5,-396 107.5,-390 107.5,-384 107.5,-384 107.5,-372 107.5,-372 107.5,-366 113.5,-360 119.5,-360 119.5,-360 178.5,-360 178.5,-360 184.5,-360 190.5,-366 190.5,-372 190.5,-372 190.5,-384 190.5,-384 190.5,-390 184.5,-396 178.5,-396"/>
<text text-anchor="middle" x="149" y="-375.5" font-family="sans" font-size="10.00">Checkspecies</text>
</g>
<!-- 4&#45;&gt;9 -->
<g id="edge12" class="edge">
<title>4&#45;&gt;9</title>
<path fill="none" stroke="grey" stroke-width="2" d="M82.75,-431.7C93.84,-422.88 107.47,-412.03 119.49,-402.47"/>
<polygon fill="grey" stroke="grey" stroke-width="2" points="121.85,-405.07 127.5,-396.1 117.49,-399.59 121.85,-405.07"/>
</g>
<!-- 5&#45;&gt;3 -->
<g id="edge7" class="edge">
<title>5&#45;&gt;3</title>
<path fill="none" stroke="grey" stroke-width="2" d="M59.52,-359.7C58.86,-351.98 58.06,-342.71 57.32,-334.11"/>
<polygon fill="grey" stroke="grey" stroke-width="2" points="60.81,-333.77 56.47,-324.1 53.83,-334.37 60.81,-333.77"/>
</g>
<!-- 6 -->
<g id="node7" class="node">
<title>6</title>
<path fill="none" stroke="#bed856" stroke-width="2" d="M169.5,-180C169.5,-180 128.5,-180 128.5,-180 122.5,-180 116.5,-174 116.5,-168 116.5,-168 116.5,-156 116.5,-156 116.5,-150 122.5,-144 128.5,-144 128.5,-144 169.5,-144 169.5,-144 175.5,-144 181.5,-150 181.5,-156 181.5,-156 181.5,-168 181.5,-168 181.5,-174 175.5,-180 169.5,-180"/>
<text text-anchor="middle" x="149" y="-159.5" font-family="sans" font-size="10.00">Rsem_idx</text>
</g>
<!-- 6&#45;&gt;1 -->
<g id="edge4" class="edge">
<title>6&#45;&gt;1</title>
<path fill="none" stroke="grey" stroke-width="2" d="M130.46,-143.7C121.2,-135.05 109.84,-124.45 99.74,-115.03"/>
<polygon fill="grey" stroke="grey" stroke-width="2" points="102.02,-112.37 92.33,-108.1 97.25,-117.49 102.02,-112.37"/>
</g>
<!-- 11 -->
<g id="node12" class="node">
<title>11</title>
<path fill="none" stroke="#59d856" stroke-width="2" d="M234.5,-108C234.5,-108 155.5,-108 155.5,-108 149.5,-108 143.5,-102 143.5,-96 143.5,-96 143.5,-84 143.5,-84 143.5,-78 149.5,-72 155.5,-72 155.5,-72 234.5,-72 234.5,-72 240.5,-72 246.5,-78 246.5,-84 246.5,-84 246.5,-96 246.5,-96 246.5,-102 240.5,-108 234.5,-108"/>
<text text-anchor="middle" x="195" y="-87.5" font-family="sans" font-size="10.00">Rsem_expression</text>
</g>
<!-- 6&#45;&gt;11 -->
<g id="edge15" class="edge">
<title>6&#45;&gt;11</title>
<path fill="none" stroke="grey" stroke-width="2" d="M160.37,-143.7C165.72,-135.56 172.2,-125.69 178.11,-116.7"/>
<polygon fill="grey" stroke="grey" stroke-width="2" points="181.19,-118.38 183.76,-108.1 175.34,-114.54 181.19,-118.38"/>
</g>
<!-- 7 -->
<g id="node8" class="node">
<title>7</title>
<path fill="none" stroke="#56d88a" stroke-width="2" d="M175.5,-252C175.5,-252 122.5,-252 122.5,-252 116.5,-252 110.5,-246 110.5,-240 110.5,-240 110.5,-228 110.5,-228 110.5,-222 116.5,-216 122.5,-216 122.5,-216 175.5,-216 175.5,-216 181.5,-216 187.5,-222 187.5,-228 187.5,-228 187.5,-240 187.5,-240 187.5,-246 181.5,-252 175.5,-252"/>
<text text-anchor="middle" x="149" y="-231.5" font-family="sans" font-size="10.00">Decompress</text>
</g>
<!-- 7&#45;&gt;6 -->
<g id="edge9" class="edge">
<title>7&#45;&gt;6</title>
<path fill="none" stroke="grey" stroke-width="2" d="M149,-215.7C149,-207.98 149,-198.71 149,-190.11"/>
<polygon fill="grey" stroke="grey" stroke-width="2" points="152.5,-190.1 149,-180.1 145.5,-190.1 152.5,-190.1"/>
</g>
<!-- 8 -->
<g id="node9" class="node">
<title>8</title>
<path fill="none" stroke="#568ad8" stroke-width="2" d="M172.5,-324C172.5,-324 125.5,-324 125.5,-324 119.5,-324 113.5,-318 113.5,-312 113.5,-312 113.5,-300 113.5,-300 113.5,-294 119.5,-288 125.5,-288 125.5,-288 172.5,-288 172.5,-288 178.5,-288 184.5,-294 184.5,-300 184.5,-300 184.5,-312 184.5,-312 184.5,-318 178.5,-324 172.5,-324"/>
<text text-anchor="middle" x="149" y="-309" font-family="sans" font-size="10.00">References</text>
<text text-anchor="middle" x="149" y="-298" font-family="sans" font-size="10.00">taxid: 9606</text>
</g>
<!-- 8&#45;&gt;7 -->
<g id="edge10" class="edge">
<title>8&#45;&gt;7</title>
<path fill="none" stroke="grey" stroke-width="2" d="M149,-287.7C149,-279.98 149,-270.71 149,-262.11"/>
<polygon fill="grey" stroke="grey" stroke-width="2" points="152.5,-262.1 149,-252.1 145.5,-262.1 152.5,-262.1"/>
</g>
<!-- 9&#45;&gt;8 -->
<g id="edge11" class="edge">
<title>9&#45;&gt;8</title>
<path fill="none" stroke="grey" stroke-width="2" d="M149,-359.7C149,-351.98 149,-342.71 149,-334.11"/>
<polygon fill="grey" stroke="grey" stroke-width="2" points="152.5,-334.1 149,-324.1 145.5,-334.1 152.5,-334.1"/>
</g>
<!-- 10 -->
<g id="node11" class="node">
<title>10</title>
<path fill="none" stroke="#d85656" stroke-width="2" stroke-dasharray="5,2" d="M268,-468C268,-468 170,-468 170,-468 164,-468 158,-462 158,-456 158,-456 158,-444 158,-444 158,-438 164,-432 170,-432 170,-432 268,-432 268,-432 274,-432 280,-438 280,-444 280,-444 280,-456 280,-456 280,-462 274,-468 268,-468"/>
<text text-anchor="middle" x="219" y="-453" font-family="sans" font-size="10.00">Metadata</text>
<text text-anchor="middle" x="219" y="-442" font-family="sans" font-size="10.00">sample: GSM3960736</text>
</g>
<!-- 10&#45;&gt;9 -->
<g id="edge13" class="edge">
<title>10&#45;&gt;9</title>
<path fill="none" stroke="grey" stroke-width="2" d="M201.7,-431.7C193.14,-423.14 182.66,-412.66 173.3,-403.3"/>
<polygon fill="grey" stroke="grey" stroke-width="2" points="175.65,-400.7 166.1,-396.1 170.7,-405.65 175.65,-400.7"/>
</g>
<!-- 13 -->
<g id="node14" class="node">
<title>13</title>
<path fill="none" stroke="#56d8c1" stroke-width="2" d="M271,-324C271,-324 215,-324 215,-324 209,-324 203,-318 203,-312 203,-312 203,-300 203,-300 203,-294 209,-288 215,-288 215,-288 271,-288 271,-288 277,-288 283,-294 283,-300 283,-300 283,-312 283,-312 283,-318 277,-324 271,-324"/>
<text text-anchor="middle" x="243" y="-303.5" font-family="sans" font-size="10.00">Fasterqdump</text>
</g>
<!-- 10&#45;&gt;13 -->
<g id="edge17" class="edge">
<title>10&#45;&gt;13</title>
<path fill="none" stroke="grey" stroke-width="2" d="M221.89,-431.87C225.99,-407.67 233.5,-363.21 238.37,-334.39"/>
<polygon fill="grey" stroke="grey" stroke-width="2" points="241.88,-334.63 240.09,-324.19 234.98,-333.47 241.88,-334.63"/>
</g>
<!-- 14 -->
<g id="node15" class="node">
<title>14</title>
<path fill="none" stroke="#d88d56" stroke-width="2" d="M292.5,-396C292.5,-396 259.5,-396 259.5,-396 253.5,-396 247.5,-390 247.5,-384 247.5,-384 247.5,-372 247.5,-372 247.5,-366 253.5,-360 259.5,-360 259.5,-360 292.5,-360 292.5,-360 298.5,-360 304.5,-366 304.5,-372 304.5,-372 304.5,-384 304.5,-384 304.5,-390 298.5,-396 292.5,-396"/>
<text text-anchor="middle" x="276" y="-375.5" font-family="sans" font-size="10.00">Srafetch</text>
</g>
<!-- 10&#45;&gt;14 -->
<g id="edge19" class="edge">
<title>10&#45;&gt;14</title>
<path fill="none" stroke="grey" stroke-width="2" d="M233.09,-431.7C239.92,-423.3 248.26,-413.07 255.76,-403.86"/>
<polygon fill="grey" stroke="grey" stroke-width="2" points="258.47,-406.07 262.07,-396.1 253.04,-401.65 258.47,-406.07"/>
</g>
<!-- 11&#45;&gt;0 -->
<g id="edge2" class="edge">
<title>11&#45;&gt;0</title>
<path fill="none" stroke="grey" stroke-width="2" d="M179.92,-71.7C172.61,-63.3 163.69,-53.07 155.66,-43.86"/>
<polygon fill="grey" stroke="grey" stroke-width="2" points="158.11,-41.34 148.91,-36.1 152.84,-45.94 158.11,-41.34"/>
</g>
<!-- 12 -->
<g id="node13" class="node">
<title>12</title>
<path fill="none" stroke="#d8bc56" stroke-width="2" d="M260.5,-252C260.5,-252 219.5,-252 219.5,-252 213.5,-252 207.5,-246 207.5,-240 207.5,-240 207.5,-228 207.5,-228 207.5,-222 213.5,-216 219.5,-216 219.5,-216 260.5,-216 260.5,-216 266.5,-216 272.5,-222 272.5,-228 272.5,-228 272.5,-240 272.5,-240 272.5,-246 266.5,-252 260.5,-252"/>
<text text-anchor="middle" x="240" y="-231.5" font-family="sans" font-size="10.00">Compress</text>
</g>
<!-- 12&#45;&gt;11 -->
<g id="edge14" class="edge">
<title>12&#45;&gt;11</title>
<path fill="none" stroke="grey" stroke-width="2" d="M234.57,-215.87C226.87,-191.56 212.69,-146.82 203.56,-118.01"/>
<polygon fill="grey" stroke="grey" stroke-width="2" points="206.8,-116.66 200.45,-108.19 200.13,-118.78 206.8,-116.66"/>
</g>
<!-- 13&#45;&gt;12 -->
<g id="edge16" class="edge">
<title>13&#45;&gt;12</title>
<path fill="none" stroke="grey" stroke-width="2" d="M242.26,-287.7C241.93,-279.98 241.53,-270.71 241.16,-262.11"/>
<polygon fill="grey" stroke="grey" stroke-width="2" points="244.66,-261.95 240.73,-252.1 237.66,-262.25 244.66,-261.95"/>
</g>
<!-- 14&#45;&gt;13 -->
<g id="edge18" class="edge">
<title>14&#45;&gt;13</title>
<path fill="none" stroke="grey" stroke-width="2" d="M267.84,-359.7C264.09,-351.73 259.55,-342.1 255.38,-333.26"/>
<polygon fill="grey" stroke="grey" stroke-width="2" points="258.49,-331.66 251.06,-324.1 252.16,-334.64 258.49,-331.66"/>
</g>
</g>
</svg>
