<?xml version="1.0" encoding="UTF-8" standalone="no"?>
<!DOCTYPE svg PUBLIC "-//W3C//DTD SVG 1.1//EN"
 "http://www.w3.org/Graphics/SVG/1.1/DTD/svg11.dtd">
<!-- Generated by graphviz version 2.38.0 (20140413.2041)
 -->
<!-- Title: snakemake_dag Pages: 1 -->
<svg width="741pt" height="404pt"
 viewBox="0.00 0.00 740.50 404.00" xmlns="http://www.w3.org/2000/svg" xmlns:xlink="http://www.w3.org/1999/xlink">
<g id="graph0" class="graph" transform="scale(1 1) rotate(0) translate(4 400)">
<title>snakemake_dag</title>
<polygon fill="white" stroke="none" points="-4,4 -4,-400 736.5,-400 736.5,4 -4,4"/>
<!-- 0 -->
<g id="node1" class="node"><title>0</title>
<path fill="none" stroke="#56d873" stroke-width="2" d="M422,-36C422,-36 392,-36 392,-36 386,-36 380,-30 380,-24 380,-24 380,-12 380,-12 380,-6 386,-0 392,-0 392,-0 422,-0 422,-0 428,-0 434,-6 434,-12 434,-12 434,-24 434,-24 434,-30 428,-36 422,-36"/>
<text text-anchor="middle" x="407" y="-15.5" font-family="sans" font-size="10.00">all</text>
</g>
<!-- 1 -->
<g id="node2" class="node"><title>1</title>
<path fill="none" stroke="#afd856" stroke-width="2" d="M446.5,-108C446.5,-108 367.5,-108 367.5,-108 361.5,-108 355.5,-102 355.5,-96 355.5,-96 355.5,-84 355.5,-84 355.5,-78 361.5,-72 367.5,-72 367.5,-72 446.5,-72 446.5,-72 452.5,-72 458.5,-78 458.5,-84 458.5,-84 458.5,-96 458.5,-96 458.5,-102 452.5,-108 446.5,-108"/>
<text text-anchor="middle" x="407" y="-87.5" font-family="sans" font-size="10.00">Rsem_expression</text>
</g>
<!-- 1&#45;&gt;0 -->
<g id="edge1" class="edge"><title>1&#45;&gt;0</title>
<path fill="none" stroke="grey" stroke-width="2" d="M407,-71.6966C407,-63.9827 407,-54.7125 407,-46.1124"/>
<polygon fill="grey" stroke="grey" stroke-width="2" points="410.5,-46.1043 407,-36.1043 403.5,-46.1044 410.5,-46.1043"/>
</g>
<!-- 2 -->
<g id="node3" class="node"><title>2</title>
<path fill="none" stroke="#d88d56" stroke-width="2" d="M129.5,-180C129.5,-180 88.5,-180 88.5,-180 82.5,-180 76.5,-174 76.5,-168 76.5,-168 76.5,-156 76.5,-156 76.5,-150 82.5,-144 88.5,-144 88.5,-144 129.5,-144 129.5,-144 135.5,-144 141.5,-150 141.5,-156 141.5,-156 141.5,-168 141.5,-168 141.5,-174 135.5,-180 129.5,-180"/>
<text text-anchor="middle" x="109" y="-159.5" font-family="sans" font-size="10.00">Compress</text>
</g>
<!-- 2&#45;&gt;1 -->
<g id="edge2" class="edge"><title>2&#45;&gt;1</title>
<path fill="none" stroke="grey" stroke-width="2" d="M141.744,-153.309C190.583,-141.836 283.376,-120.039 345.224,-105.511"/>
<polygon fill="grey" stroke="grey" stroke-width="2" points="346.318,-108.85 355.253,-103.155 344.717,-102.035 346.318,-108.85"/>
</g>
<!-- 3 -->
<g id="node4" class="node"><title>3</title>
<path fill="none" stroke="#d88d56" stroke-width="2" d="M261.5,-180C261.5,-180 220.5,-180 220.5,-180 214.5,-180 208.5,-174 208.5,-168 208.5,-168 208.5,-156 208.5,-156 208.5,-150 214.5,-144 220.5,-144 220.5,-144 261.5,-144 261.5,-144 267.5,-144 273.5,-150 273.5,-156 273.5,-156 273.5,-168 273.5,-168 273.5,-174 267.5,-180 261.5,-180"/>
<text text-anchor="middle" x="241" y="-159.5" font-family="sans" font-size="10.00">Compress</text>
</g>
<!-- 3&#45;&gt;1 -->
<g id="edge3" class="edge"><title>3&#45;&gt;1</title>
<path fill="none" stroke="grey" stroke-width="2" d="M273.796,-147.17C297.631,-137.119 330.314,-123.337 357.341,-111.941"/>
<polygon fill="grey" stroke="grey" stroke-width="2" points="358.786,-115.13 366.641,-108.019 356.066,-108.68 358.786,-115.13"/>
</g>
<!-- 4 -->
<g id="node5" class="node"><title>4</title>
<path fill="none" stroke="#d88d56" stroke-width="2" d="M372.5,-180C372.5,-180 331.5,-180 331.5,-180 325.5,-180 319.5,-174 319.5,-168 319.5,-168 319.5,-156 319.5,-156 319.5,-150 325.5,-144 331.5,-144 331.5,-144 372.5,-144 372.5,-144 378.5,-144 384.5,-150 384.5,-156 384.5,-156 384.5,-168 384.5,-168 384.5,-174 378.5,-180 372.5,-180"/>
<text text-anchor="middle" x="352" y="-159.5" font-family="sans" font-size="10.00">Compress</text>
</g>
<!-- 4&#45;&gt;1 -->
<g id="edge4" class="edge"><title>4&#45;&gt;1</title>
<path fill="none" stroke="grey" stroke-width="2" d="M365.596,-143.697C372.123,-135.389 380.068,-125.277 387.247,-116.141"/>
<polygon fill="grey" stroke="grey" stroke-width="2" points="390.135,-118.13 393.561,-108.104 384.631,-113.805 390.135,-118.13"/>
</g>
<!-- 5 -->
<g id="node6" class="node"><title>5</title>
<path fill="none" stroke="#d88d56" stroke-width="2" d="M483.5,-180C483.5,-180 442.5,-180 442.5,-180 436.5,-180 430.5,-174 430.5,-168 430.5,-168 430.5,-156 430.5,-156 430.5,-150 436.5,-144 442.5,-144 442.5,-144 483.5,-144 483.5,-144 489.5,-144 495.5,-150 495.5,-156 495.5,-156 495.5,-168 495.5,-168 495.5,-174 489.5,-180 483.5,-180"/>
<text text-anchor="middle" x="463" y="-159.5" font-family="sans" font-size="10.00">Compress</text>
</g>
<!-- 5&#45;&gt;1 -->
<g id="edge5" class="edge"><title>5&#45;&gt;1</title>
<path fill="none" stroke="grey" stroke-width="2" d="M449.157,-143.697C442.511,-135.389 434.422,-125.277 427.113,-116.141"/>
<polygon fill="grey" stroke="grey" stroke-width="2" points="429.664,-113.727 420.683,-108.104 424.197,-118.099 429.664,-113.727"/>
</g>
<!-- 6 -->
<g id="node7" class="node"><title>6</title>
<path fill="none" stroke="#d85656" stroke-width="2" d="M598.5,-180C598.5,-180 557.5,-180 557.5,-180 551.5,-180 545.5,-174 545.5,-168 545.5,-168 545.5,-156 545.5,-156 545.5,-150 551.5,-144 557.5,-144 557.5,-144 598.5,-144 598.5,-144 604.5,-144 610.5,-150 610.5,-156 610.5,-156 610.5,-168 610.5,-168 610.5,-174 604.5,-180 598.5,-180"/>
<text text-anchor="middle" x="578" y="-159.5" font-family="sans" font-size="10.00">Rsem_idx</text>
</g>
<!-- 6&#45;&gt;1 -->
<g id="edge6" class="edge"><title>6&#45;&gt;1</title>
<path fill="none" stroke="grey" stroke-width="2" d="M545.434,-147.669C520.708,-137.547 486.246,-123.44 457.893,-111.833"/>
<polygon fill="grey" stroke="grey" stroke-width="2" points="459.115,-108.552 448.534,-108.002 456.463,-115.03 459.115,-108.552"/>
</g>
<!-- 7 -->
<g id="node8" class="node"><title>7</title>
<path fill="none" stroke="#d85656" stroke-width="2" d="M703.5,-180C703.5,-180 662.5,-180 662.5,-180 656.5,-180 650.5,-174 650.5,-168 650.5,-168 650.5,-156 650.5,-156 650.5,-150 656.5,-144 662.5,-144 662.5,-144 703.5,-144 703.5,-144 709.5,-144 715.5,-150 715.5,-156 715.5,-156 715.5,-168 715.5,-168 715.5,-174 709.5,-180 703.5,-180"/>
<text text-anchor="middle" x="683" y="-159.5" font-family="sans" font-size="10.00">Rsem_idx</text>
</g>
<!-- 7&#45;&gt;1 -->
<g id="edge7" class="edge"><title>7&#45;&gt;1</title>
<path fill="none" stroke="grey" stroke-width="2" d="M650.466,-152.259C640.388,-149.578 629.242,-146.64 619,-144 568.494,-130.98 511.094,-116.659 468.77,-106.189"/>
<polygon fill="grey" stroke="grey" stroke-width="2" points="469.441,-102.75 458.893,-103.748 467.761,-109.545 469.441,-102.75"/>
</g>
<!-- 8 -->
<g id="node9" class="node"><title>8</title>
<path fill="none" stroke="#56d8a9" stroke-width="2" d="M110,-252C110,-252 12,-252 12,-252 6,-252 -7.10543e-15,-246 -7.10543e-15,-240 -7.10543e-15,-240 -7.10543e-15,-228 -7.10543e-15,-228 -7.10543e-15,-222 6,-216 12,-216 12,-216 110,-216 110,-216 116,-216 122,-222 122,-228 122,-228 122,-240 122,-240 122,-246 116,-252 110,-252"/>
<text text-anchor="middle" x="61" y="-237" font-family="sans" font-size="10.00">Fasterqdump</text>
<text text-anchor="middle" x="61" y="-226" font-family="sans" font-size="10.00">sample: GSM3960735</text>
</g>
<!-- 8&#45;&gt;2 -->
<g id="edge8" class="edge"><title>8&#45;&gt;2</title>
<path fill="none" stroke="grey" stroke-width="2" d="M72.8652,-215.697C78.5035,-207.474 85.3543,-197.483 91.5687,-188.421"/>
<polygon fill="grey" stroke="grey" stroke-width="2" points="94.5025,-190.331 97.2713,-180.104 88.7294,-186.372 94.5025,-190.331"/>
</g>
<!-- 9 -->
<g id="node10" class="node"><title>9</title>
<path fill="none" stroke="#56d8a9" stroke-width="2" d="M250,-252C250,-252 152,-252 152,-252 146,-252 140,-246 140,-240 140,-240 140,-228 140,-228 140,-222 146,-216 152,-216 152,-216 250,-216 250,-216 256,-216 262,-222 262,-228 262,-228 262,-240 262,-240 262,-246 256,-252 250,-252"/>
<text text-anchor="middle" x="201" y="-237" font-family="sans" font-size="10.00">Fasterqdump</text>
<text text-anchor="middle" x="201" y="-226" font-family="sans" font-size="10.00">sample: GSM3960736</text>
</g>
<!-- 9&#45;&gt;3 -->
<g id="edge9" class="edge"><title>9&#45;&gt;3</title>
<path fill="none" stroke="grey" stroke-width="2" d="M210.888,-215.697C215.489,-207.644 221.06,-197.894 226.153,-188.982"/>
<polygon fill="grey" stroke="grey" stroke-width="2" points="229.304,-190.523 231.226,-180.104 223.226,-187.05 229.304,-190.523"/>
</g>
<!-- 10 -->
<g id="node11" class="node"><title>10</title>
<path fill="none" stroke="#56d8a9" stroke-width="2" d="M390,-252C390,-252 292,-252 292,-252 286,-252 280,-246 280,-240 280,-240 280,-228 280,-228 280,-222 286,-216 292,-216 292,-216 390,-216 390,-216 396,-216 402,-222 402,-228 402,-228 402,-240 402,-240 402,-246 396,-252 390,-252"/>
<text text-anchor="middle" x="341" y="-237" font-family="sans" font-size="10.00">Fasterqdump</text>
<text text-anchor="middle" x="341" y="-226" font-family="sans" font-size="10.00">sample: GSM3960737</text>
</g>
<!-- 10&#45;&gt;4 -->
<g id="edge10" class="edge"><title>10&#45;&gt;4</title>
<path fill="none" stroke="grey" stroke-width="2" d="M343.719,-215.697C344.931,-207.983 346.388,-198.712 347.739,-190.112"/>
<polygon fill="grey" stroke="grey" stroke-width="2" points="351.217,-190.526 349.312,-180.104 344.302,-189.44 351.217,-190.526"/>
</g>
<!-- 11 -->
<g id="node12" class="node"><title>11</title>
<path fill="none" stroke="#56d8a9" stroke-width="2" d="M530,-252C530,-252 432,-252 432,-252 426,-252 420,-246 420,-240 420,-240 420,-228 420,-228 420,-222 426,-216 432,-216 432,-216 530,-216 530,-216 536,-216 542,-222 542,-228 542,-228 542,-240 542,-240 542,-246 536,-252 530,-252"/>
<text text-anchor="middle" x="481" y="-237" font-family="sans" font-size="10.00">Fasterqdump</text>
<text text-anchor="middle" x="481" y="-226" font-family="sans" font-size="10.00">sample: GSM4735163</text>
</g>
<!-- 11&#45;&gt;5 -->
<g id="edge11" class="edge"><title>11&#45;&gt;5</title>
<path fill="none" stroke="grey" stroke-width="2" d="M476.551,-215.697C474.545,-207.898 472.131,-198.509 469.899,-189.829"/>
<polygon fill="grey" stroke="grey" stroke-width="2" points="473.278,-188.918 467.398,-180.104 466.499,-190.661 473.278,-188.918"/>
</g>
<!-- 12 -->
<g id="node13" class="node"><title>12</title>
<path fill="none" stroke="#56c9d8" stroke-width="2" d="M625.5,-252C625.5,-252 572.5,-252 572.5,-252 566.5,-252 560.5,-246 560.5,-240 560.5,-240 560.5,-228 560.5,-228 560.5,-222 566.5,-216 572.5,-216 572.5,-216 625.5,-216 625.5,-216 631.5,-216 637.5,-222 637.5,-228 637.5,-228 637.5,-240 637.5,-240 637.5,-246 631.5,-252 625.5,-252"/>
<text text-anchor="middle" x="599" y="-231.5" font-family="sans" font-size="10.00">Decompress</text>
</g>
<!-- 12&#45;&gt;6 -->
<g id="edge12" class="edge"><title>12&#45;&gt;6</title>
<path fill="none" stroke="grey" stroke-width="2" d="M593.809,-215.697C591.469,-207.898 588.653,-198.509 586.049,-189.829"/>
<polygon fill="grey" stroke="grey" stroke-width="2" points="589.357,-188.677 583.131,-180.104 582.652,-190.688 589.357,-188.677"/>
</g>
<!-- 13 -->
<g id="node14" class="node"><title>13</title>
<path fill="none" stroke="#56c9d8" stroke-width="2" d="M720.5,-252C720.5,-252 667.5,-252 667.5,-252 661.5,-252 655.5,-246 655.5,-240 655.5,-240 655.5,-228 655.5,-228 655.5,-222 661.5,-216 667.5,-216 667.5,-216 720.5,-216 720.5,-216 726.5,-216 732.5,-222 732.5,-228 732.5,-228 732.5,-240 732.5,-240 732.5,-246 726.5,-252 720.5,-252"/>
<text text-anchor="middle" x="694" y="-231.5" font-family="sans" font-size="10.00">Decompress</text>
</g>
<!-- 13&#45;&gt;7 -->
<g id="edge13" class="edge"><title>13&#45;&gt;7</title>
<path fill="none" stroke="grey" stroke-width="2" d="M691.281,-215.697C690.069,-207.983 688.612,-198.712 687.261,-190.112"/>
<polygon fill="grey" stroke="grey" stroke-width="2" points="690.698,-189.44 685.688,-180.104 683.783,-190.526 690.698,-189.44"/>
</g>
<!-- 14 -->
<g id="node15" class="node"><title>14</title>
<path fill="none" stroke="#d8cb56" stroke-width="2" stroke-dasharray="5,2" d="M374,-396C374,-396 336,-396 336,-396 330,-396 324,-390 324,-384 324,-384 324,-372 324,-372 324,-366 330,-360 336,-360 336,-360 374,-360 374,-360 380,-360 386,-366 386,-372 386,-372 386,-384 386,-384 386,-390 380,-396 374,-396"/>
<text text-anchor="middle" x="355" y="-375.5" font-family="sans" font-size="10.00">Metadata</text>
</g>
<!-- 14&#45;&gt;8 -->
<g id="edge14" class="edge"><title>14&#45;&gt;8</title>
<path fill="none" stroke="grey" stroke-width="2" d="M323.846,-365.106C297.691,-354.882 259.496,-339.392 227,-324 182.564,-302.952 133.059,-275.926 99.7704,-257.205"/>
<polygon fill="grey" stroke="grey" stroke-width="2" points="101.258,-254.025 90.8289,-252.157 97.8162,-260.121 101.258,-254.025"/>
</g>
<!-- 14&#45;&gt;9 -->
<g id="edge16" class="edge"><title>14&#45;&gt;9</title>
<path fill="none" stroke="grey" stroke-width="2" d="M323.929,-364.284C304.101,-355.117 278.705,-341.326 260,-324 240.57,-306.003 224.452,-280.375 214,-261.239"/>
<polygon fill="grey" stroke="grey" stroke-width="2" points="216.969,-259.366 209.199,-252.163 210.782,-262.639 216.969,-259.366"/>
</g>
<!-- 14&#45;&gt;10 -->
<g id="edge18" class="edge"><title>14&#45;&gt;10</title>
<path fill="none" stroke="grey" stroke-width="2" d="M353.311,-359.871C350.925,-335.67 346.542,-291.211 343.701,-262.393"/>
<polygon fill="grey" stroke="grey" stroke-width="2" points="347.159,-261.798 342.695,-252.189 340.193,-262.484 347.159,-261.798"/>
</g>
<!-- 14&#45;&gt;11 -->
<g id="edge20" class="edge"><title>14&#45;&gt;11</title>
<path fill="none" stroke="grey" stroke-width="2" d="M370.199,-359.871C392.335,-334.924 433.573,-288.45 459.018,-259.773"/>
<polygon fill="grey" stroke="grey" stroke-width="2" points="461.728,-261.992 465.748,-252.189 456.492,-257.346 461.728,-261.992"/>
</g>
<!-- 15 -->
<g id="node16" class="node"><title>15</title>
<path fill="none" stroke="#70d856" stroke-width="2" d="M314.5,-324C314.5,-324 281.5,-324 281.5,-324 275.5,-324 269.5,-318 269.5,-312 269.5,-312 269.5,-300 269.5,-300 269.5,-294 275.5,-288 281.5,-288 281.5,-288 314.5,-288 314.5,-288 320.5,-288 326.5,-294 326.5,-300 326.5,-300 326.5,-312 326.5,-312 326.5,-318 320.5,-324 314.5,-324"/>
<text text-anchor="middle" x="298" y="-303.5" font-family="sans" font-size="10.00">Srafetch</text>
</g>
<!-- 14&#45;&gt;15 -->
<g id="edge24" class="edge"><title>14&#45;&gt;15</title>
<path fill="none" stroke="grey" stroke-width="2" d="M340.91,-359.697C334.077,-351.305 325.743,-341.07 318.244,-331.861"/>
<polygon fill="grey" stroke="grey" stroke-width="2" points="320.956,-329.649 311.928,-324.104 315.528,-334.069 320.956,-329.649"/>
</g>
<!-- 16 -->
<g id="node17" class="node"><title>16</title>
<path fill="none" stroke="#5692d8" stroke-width="2" d="M583.5,-324C583.5,-324 536.5,-324 536.5,-324 530.5,-324 524.5,-318 524.5,-312 524.5,-312 524.5,-300 524.5,-300 524.5,-294 530.5,-288 536.5,-288 536.5,-288 583.5,-288 583.5,-288 589.5,-288 595.5,-294 595.5,-300 595.5,-300 595.5,-312 595.5,-312 595.5,-318 589.5,-324 583.5,-324"/>
<text text-anchor="middle" x="560" y="-309" font-family="sans" font-size="10.00">References</text>
<text text-anchor="middle" x="560" y="-298" font-family="sans" font-size="10.00">taxid: 9606</text>
</g>
<!-- 14&#45;&gt;16 -->
<g id="edge25" class="edge"><title>14&#45;&gt;16</title>
<path fill="none" stroke="grey" stroke-width="2" d="M386.135,-366.369C420.417,-354.663 475.841,-335.737 514.881,-322.406"/>
<polygon fill="grey" stroke="grey" stroke-width="2" points="516.098,-325.689 524.431,-319.146 513.836,-319.065 516.098,-325.689"/>
</g>
<!-- 17 -->
<g id="node18" class="node"><title>17</title>
<path fill="none" stroke="#5692d8" stroke-width="2" d="M706.5,-324C706.5,-324 653.5,-324 653.5,-324 647.5,-324 641.5,-318 641.5,-312 641.5,-312 641.5,-300 641.5,-300 641.5,-294 647.5,-288 653.5,-288 653.5,-288 706.5,-288 706.5,-288 712.5,-288 718.5,-294 718.5,-300 718.5,-300 718.5,-312 718.5,-312 718.5,-318 712.5,-324 706.5,-324"/>
<text text-anchor="middle" x="680" y="-309" font-family="sans" font-size="10.00">References</text>
<text text-anchor="middle" x="680" y="-298" font-family="sans" font-size="10.00">taxid: 10090</text>
</g>
<!-- 14&#45;&gt;17 -->
<g id="edge26" class="edge"><title>14&#45;&gt;17</title>
<path fill="none" stroke="grey" stroke-width="2" d="M386.077,-370.493C433.222,-360.597 525.626,-341.106 604,-324 612.925,-322.052 622.432,-319.948 631.593,-317.907"/>
<polygon fill="grey" stroke="grey" stroke-width="2" points="632.358,-321.322 641.354,-315.726 630.831,-314.49 632.358,-321.322"/>
</g>
<!-- 15&#45;&gt;8 -->
<g id="edge15" class="edge"><title>15&#45;&gt;8</title>
<path fill="none" stroke="grey" stroke-width="2" d="M269.412,-296.556C234.701,-286.304 175.019,-268.677 128.394,-254.906"/>
<polygon fill="grey" stroke="grey" stroke-width="2" points="129.239,-251.506 118.657,-252.03 127.256,-258.219 129.239,-251.506"/>
</g>
<!-- 15&#45;&gt;9 -->
<g id="edge17" class="edge"><title>15&#45;&gt;9</title>
<path fill="none" stroke="grey" stroke-width="2" d="M274.022,-287.697C261.689,-278.796 246.484,-267.823 233.147,-258.199"/>
<polygon fill="grey" stroke="grey" stroke-width="2" points="234.859,-255.118 224.702,-252.104 230.763,-260.794 234.859,-255.118"/>
</g>
<!-- 15&#45;&gt;10 -->
<g id="edge19" class="edge"><title>15&#45;&gt;10</title>
<path fill="none" stroke="grey" stroke-width="2" d="M308.629,-287.697C313.628,-279.559 319.691,-269.689 325.212,-260.701"/>
<polygon fill="grey" stroke="grey" stroke-width="2" points="328.241,-262.457 330.493,-252.104 322.277,-258.793 328.241,-262.457"/>
</g>
<!-- 15&#45;&gt;11 -->
<g id="edge21" class="edge"><title>15&#45;&gt;11</title>
<path fill="none" stroke="grey" stroke-width="2" d="M326.594,-294.062C353.31,-283.843 393.893,-268.319 426.75,-255.751"/>
<polygon fill="grey" stroke="grey" stroke-width="2" points="428.144,-258.966 436.233,-252.124 425.643,-252.428 428.144,-258.966"/>
</g>
<!-- 16&#45;&gt;12 -->
<g id="edge22" class="edge"><title>16&#45;&gt;12</title>
<path fill="none" stroke="grey" stroke-width="2" d="M569.64,-287.697C574.127,-279.644 579.559,-269.894 584.524,-260.982"/>
<polygon fill="grey" stroke="grey" stroke-width="2" points="587.661,-262.544 589.47,-252.104 581.546,-259.137 587.661,-262.544"/>
</g>
<!-- 17&#45;&gt;13 -->
<g id="edge23" class="edge"><title>17&#45;&gt;13</title>
<path fill="none" stroke="grey" stroke-width="2" d="M683.461,-287.697C685.003,-279.983 686.858,-270.712 688.578,-262.112"/>
<polygon fill="grey" stroke="grey" stroke-width="2" points="692.05,-262.597 690.579,-252.104 685.186,-261.224 692.05,-262.597"/>
</g>
</g>
</svg>
